<svg width="16" height="16" viewBox="0 0 16 16" fill="none" xmlns="http://www.w3.org/2000/svg">
<path d="M12.4714 5.47134C12.3463 5.34636 12.1768 5.27615 12 5.27615C11.8233 5.27615 11.6537 5.34636 11.5287 5.47134L8.47136 8.52868C8.34461 8.65034 8.17572 8.71827 8.00003 8.71827C7.82434 8.71827 7.65545 8.65034 7.52869 8.52868L4.47136 5.47134C4.34563 5.34991 4.17722 5.28271 4.00243 5.28423C3.82763 5.28575 3.66042 5.35586 3.53682 5.47947C3.41321 5.60307 3.3431 5.77028 3.34158 5.94508C3.34006 6.11987 3.40726 6.28828 3.52869 6.41401L6.58536 9.47134C6.77108 9.6571 6.99158 9.80445 7.23425 9.90498C7.47692 10.0055 7.73702 10.0573 7.99969 10.0573C8.26237 10.0573 8.52247 10.0055 8.76514 9.90498C9.00781 9.80445 9.22831 9.6571 9.41403 9.47134L12.4714 6.41401C12.5963 6.28899 12.6666 6.11945 12.6666 5.94268C12.6666 5.7659 12.5963 5.59636 12.4714 5.47134Z" fill="#626466"/>
</svg>
